<?xml version="1.0" encoding="UTF-8"?>
<!DOCTYPE svg PUBLIC "-//W3C//DTD SVG 1.1//EN" "http://www.w3.org/Graphics/SVG/1.1/DTD/svg11.dtd">
<svg xmlns="http://www.w3.org/2000/svg" version="1.1" width="512px" height="512px" style="shape-rendering:geometricPrecision; text-rendering:geometricPrecision; image-rendering:optimizeQuality; fill-rule:evenodd; clip-rule:evenodd" xmlns:xlink="http://www.w3.org/1999/xlink">
<g><path style="opacity:0.996" fill="#000000" d="M 69.5,31.5 C 193.5,31.3333 317.5,31.5 441.5,32C 461.333,37.1667 473.833,49.6667 479,69.5C 479.667,193.5 479.667,317.5 479,441.5C 473.833,461.333 461.333,473.833 441.5,479C 317.5,479.667 193.5,479.667 69.5,479C 49.6667,473.833 37.1667,461.333 32,441.5C 31.3333,317.5 31.3333,193.5 32,69.5C 37.3488,49.6518 49.8488,36.9852 69.5,31.5 Z M 79.5,63.5 C 196.834,63.3333 314.167,63.5 431.5,64C 438.566,64.4469 443.399,67.9469 446,74.5C 447.43,92.1191 447.93,109.786 447.5,127.5C 319.5,127.5 191.5,127.5 63.5,127.5C 63.0703,109.786 63.5703,92.1191 65,74.5C 67.8214,68.0228 72.6547,64.3561 79.5,63.5 Z M 63.5,159.5 C 191.5,159.5 319.5,159.5 447.5,159.5C 447.667,250.167 447.5,340.834 447,431.5C 445.833,440.667 440.667,445.833 431.5,447C 314.167,447.667 196.833,447.667 79.5,447C 70.3333,445.833 65.1667,440.667 64,431.5C 63.5,340.834 63.3333,250.167 63.5,159.5 Z"/></g>
<g><path style="opacity:0.961" fill="#000000" d="M 126.5,206.5 C 130.379,206.977 134.046,208.143 137.5,210C 157.333,229.833 177.167,249.667 197,269.5C 201.667,276.167 201.667,282.833 197,289.5C 177.167,309.333 157.333,329.167 137.5,349C 123.211,355.189 114.211,350.689 110.5,335.5C 111.055,331.946 112.221,328.613 114,325.5C 129.347,310.319 144.514,294.986 159.5,279.5C 144.514,264.014 129.347,248.681 114,233.5C 107.918,219.668 112.084,210.668 126.5,206.5 Z"/></g>
<g><path style="opacity:0.982" fill="#000000" d="M 217.5,319.5 C 242.836,319.333 268.169,319.5 293.5,320C 302.482,324.473 305.649,331.64 303,341.5C 301.167,346 298,349.167 293.5,351C 268.167,351.667 242.833,351.667 217.5,351C 210.513,348.193 207.18,343.027 207.5,335.5C 207.302,327.885 210.635,322.551 217.5,319.5 Z"/></g>
</svg>
