<?xml version="1.0" encoding="UTF-8"?>
<!DOCTYPE svg PUBLIC "-//W3C//DTD SVG 1.1//EN" "http://www.w3.org/Graphics/SVG/1.1/DTD/svg11.dtd">
<svg xmlns="http://www.w3.org/2000/svg" version="1.1" width="512px" height="512px" style="shape-rendering:geometricPrecision; text-rendering:geometricPrecision; image-rendering:optimizeQuality; fill-rule:evenodd; clip-rule:evenodd" xmlns:xlink="http://www.w3.org/1999/xlink">
<g><path style="opacity:0.991" fill="#000000" d="M 119.5,25.5 C 213.188,25.0221 306.855,25.5221 400.5,27C 450.268,38.1015 478.435,68.9348 485,119.5C 485.667,210.167 485.667,300.833 485,391.5C 479.995,433.373 458.162,462.539 419.5,479C 410.437,482.266 401.104,484.266 391.5,485C 300.833,485.667 210.167,485.667 119.5,485C 77.6273,479.995 48.4606,458.162 32,419.5C 28.7342,410.437 26.7342,401.104 26,391.5C 25.0221,297.813 25.3555,204.146 27,110.5C 38.3219,60.7813 69.1552,32.448 119.5,25.5 Z M 124.5,218.5 C 129.725,218.297 134.392,219.797 138.5,223C 167.423,244.712 196.256,266.545 225,288.5C 230.169,296.99 229.002,304.49 221.5,311C 193.217,331.615 165.217,352.615 137.5,374C 127.068,380.18 118.901,378.013 113,367.5C 111.776,361.696 112.776,356.362 116,351.5C 139.642,334.026 163.142,316.359 186.5,298.5C 162.976,279.815 139.143,261.481 115,243.5C 109.283,231.623 112.45,223.289 124.5,218.5 Z M 273.5,346.5 C 318.168,346.333 362.835,346.5 407.5,347C 419.036,351.24 422.536,359.073 418,370.5C 415.736,373.433 412.902,375.6 409.5,377C 363.833,377.667 318.167,377.667 272.5,377C 261.9,371.968 259.067,364.135 264,353.5C 266.529,350.115 269.696,347.782 273.5,346.5 Z"/></g>
</svg>
